# xmcd
#
# Track frame offsets:
# 150
# 21051
# 49951
# 78277
# 80733
# 94353
# 120313
# 133941
# 148371
# 172244
# 192004
#
# Disc length: 2794 seconds
#
#
# Revision: 0
# Processed by: cddbd v1.5.2PL0 Copyright (c) Steve Scherf et al.
# Submitted via: Nero 7, 11, 10, 0 
#
DISCID=9d0ae80b
DTITLE=Sleepy Eddie James - Frisky From The Whisky
DYEAR=2001
DGENRE=Blues
TTITLE0=Frisky From The Whisky
TTITLE1=You've Got To Learn
TTITLE2=Flash The Cash
TTITLE3=Bitte Ein Bitt
TTITLE4=Mind Of A Woman
TTITLE5=I Tell My Heart
TTITLE6=Everything
TTITLE7=Catnip
TTITLE8=All My Foolishness
TTITLE9=She Growls Me
TTITLE10=Walk With Me
EXTD=
EXTT0=Frisky From The Whisky
EXTT1=You've Got To Learn
EXTT2=Flash The Cash
EXTT3=Bitte Ein Bitt
EXTT4=Mind Of A Woman
EXTT5=I Tell My Heart
EXTT6=Everything
EXTT7=Catnip
EXTT8=All My Foolishness
EXTT9=She Growls Me
EXTT10=Walk With Me
PLAYORDER=
